Coordinates
version=1
nRows=37
nColumns=30
inDegrees=yes

Units are S.I. units (second, meters, Newtons, ...)
Angles are in degrees.

endheader
time	floatyaw	floatroll	floatpitch	floatx	floaty	floatz	pro_sup_l	deviation_l	flexion_l	cmc_flexion_l	cmc_abduction_l	mp_flexion_l	ip_flexion_l	2mcp_flexion_l	2mcp_abduction_l	2pm_flexion_l	2md_flexion_l	3mcp_flexion_l	3mcp_abduction_l	3pm_flexion_l	3md_flexion_l	4mcp_flexion_l	4mcp_abduction_l	4pm_flexion_l	4md_flexion_l	5mcp_flexion_l	5mcp_abduction_l	5pm_flexion_l	5md_flexion_l
-0.995000	0.866899	-3.180214	97.472630	-0.106801	-0.189911	-0.033614	87.703427	0.328326	-2.250842	18.512831	2.104971	-21.583831	-34.709874	36.324842	8.748382	46.455360	33.037812	22.152935	4.893352	45.432422	31.263712	12.236632	-4.679140	59.474481	41.223105	7.831464	-9.151019	58.788760	41.535166
-0.985000	0.866899	-3.180214	97.472630	-0.106797	-0.189904	-0.033601	87.717484	0.329574	-2.252114	18.495169	2.073754	-21.591291	-34.711270	36.318440	8.741794	46.465517	33.046262	22.148255	4.896827	45.433463	31.268609	12.242508	-4.682081	59.478072	41.222907	7.842157	-9.147352	58.781923	41.526716
-0.975000	0.866899	-3.180214	97.472630	-0.106795	-0.189900	-0.033590	87.728621	0.331621	-2.255182	18.477761	2.039442	-21.598865	-34.714564	36.318286	8.732847	46.468822	33.051482	22.145232	4.899534	45.431763	31.275120	12.247865	-4.685143	59.477188	41.222883	7.849318	-9.143812	58.780931	41.522590
-0.965000	0.866899	-3.180214	97.472630	-0.106792	-0.189900	-0.033579	87.738859	0.334169	-2.260592	18.460821	2.004128	-21.605113	-34.718256	36.324438	8.721757	46.469810	33.055772	22.145428	4.901071	45.431014	31.284770	12.252996	-4.687564	59.473792	41.223901	7.857705	-9.140993	58.786286	41.521302
-0.955000	0.866899	-3.180214	97.472630	-0.106788	-0.189900	-0.033566	87.750219	0.336549	-2.267984	18.444578	1.970192	-21.609656	-34.721216	36.335128	8.709404	46.473168	33.061471	22.149410	4.901444	45.433800	31.297976	12.259377	-4.688790	59.469668	41.226097	7.871197	-9.138920	58.795951	41.520647
-0.945000	0.866899	-3.180214	97.472630	-0.106782	-0.189900	-0.033551	87.763938	0.337983	-2.276300	18.429435	1.939636	-21.613343	-34.723344	36.347812	8.697155	46.481756	33.069763	22.156864	4.901017	45.440981	31.313691	12.269485	-4.688887	59.465994	41.228704	7.890951	-9.136515	58.806385	41.518582
-0.935000	0.866899	-3.180214	97.472630	-0.106776	-0.189897	-0.033533	87.779877	0.337898	-2.284260	18.415922	1.913733	-21.617561	-34.725434	36.360328	8.686380	46.495722	33.080162	22.166910	4.900255	45.452311	31.329936	12.285537	-4.688519	59.463403	41.230498	7.915158	-9.131995	58.814460	41.513969
-0.925000	0.866899	-3.180214	97.472630	-0.106769	-0.189892	-0.033513	87.796368	0.336068	-2.290880	18.404440	1.892876	-21.623208	-34.728448	36.371673	8.677952	46.513084	33.090915	22.178335	4.899470	45.467547	31.344834	12.307928	-4.688513	59.462472	41.230657	7.940843	-9.124107	58.818848	41.506713
-0.915000	0.866899	-3.180214	97.472630	-0.106761	-0.189886	-0.033493	87.810848	0.332608	-2.295723	18.394884	1.876320	-21.630128	-34.732767	36.382108	8.672014	46.531196	33.099999	22.189812	4.898688	45.486905	31.357431	12.334477	-4.689324	59.464154	41.229449	7.966334	-9.113183	58.819997	41.497313
-0.905000	0.866899	-3.180214	97.472630	-0.106754	-0.189880	-0.033475	87.821204	0.328023	-2.298792	18.386269	1.861727	-21.637490	-34.737998	36.392575	8.668072	46.547992	33.106053	22.200325	4.897619	45.510431	31.367771	12.361150	-4.690793	59.469575	41.228158	7.992369	-9.100952	58.818928	41.486307
-0.895000	0.866899	-3.180214	97.472630	-0.106747	-0.189874	-0.033459	87.827082	0.323283	-2.300239	18.376673	1.844958	-21.644850	-34.743457	36.403870	8.665279	46.562356	33.108736	22.209717	4.895748	45.536891	31.376298	12.383954	-4.692359	59.479103	41.228197	8.021065	-9.089148	58.815829	41.473988
-0.885000	0.866899	-3.180214	97.472630	-0.106741	-0.189867	-0.033447	87.830225	0.319658	-2.300212	18.363751	1.820966	-21.653007	-34.748975	36.416159	8.662727	46.573818	33.108487	22.218887	4.892578	45.563306	31.383151	12.400844	-4.693540	59.491313	41.229977	8.053974	-9.078235	58.809400	41.460451
-0.875000	0.866899	-3.180214	97.472630	-0.106735	-0.189858	-0.033438	87.833515	0.318188	-2.298949	18.345723	1.786125	-21.663819	-34.755311	36.429101	8.659662	46.582326	33.106098	22.229274	4.888009	45.585807	31.387969	12.412435	-4.694254	59.502882	41.232411	8.091033	-9.067502	58.797445	41.445768
-0.865000	0.866899	-3.180214	97.472630	-0.106731	-0.189846	-0.033430	87.839339	0.319019	-2.296978	18.322306	1.741044	-21.678829	-34.763666	36.442274	8.655627	46.588551	33.102540	22.241815	4.882602	45.601489	31.390419	12.421165	-4.694765	59.509979	41.233556	8.130872	-9.056389	58.778514	41.430210
-0.855000	0.866899	-3.180214	97.472630	-0.106727	-0.189832	-0.033422	87.848314	0.321123	-2.295147	18.294934	1.691924	-21.697608	-34.774484	36.455417	8.650531	46.594382	33.099114	22.256062	4.877522	45.610223	31.391083	12.429681	-4.695389	59.510605	41.232010	8.171525	-9.045606	58.753746	41.414501
-0.845000	0.866899	-3.180214	97.472630	-0.106723	-0.189819	-0.033413	87.859031	0.322675	-2.294374	18.265980	1.648853	-21.717131	-34.786402	36.468277	8.644639	46.602813	33.097542	22.270034	4.874142	45.615213	31.391963	12.439616	-4.696312	59.506345	41.228094	8.210589	-9.036850	58.727658	41.399982
-0.835000	0.866899	-3.180214	97.472630	-0.106717	-0.189809	-0.033401	87.868844	0.321974	-2.295268	18.237435	1.621373	-21.732923	-34.796340	36.480272	8.638502	46.616796	33.099607	22.280934	4.873515	45.621698	31.396031	12.451361	-4.697652	59.502150	41.223916	8.245080	-9.031367	58.707039	41.388414
-0.825000	0.866899	-3.180214	97.472630	-0.106708	-0.189804	-0.033388	87.875294	0.318429	-2.297929	18.209982	1.613605	-21.741427	-34.800937	36.490492	8.632813	46.637630	33.106416	22.286408	4.875960	45.634372	31.405902	12.464598	-4.699643	59.504044	41.222264	8.271849	-9.028687	58.698221	41.381375
-0.815000	0.866899	-3.180214	97.472630	-0.106696	-0.189804	-0.033374	87.877534	0.313080	-2.302124	18.183197	1.621830	-21.742113	-34.798618	36.498289	8.628164	46.664052	33.117770	22.285755	4.880891	45.655018	31.422411	12.478936	-4.702655	59.516046	41.225084	8.288920	-9.026656	58.704219	41.379527
-0.805000	0.866899	-3.180214	97.472630	-0.106682	-0.189809	-0.033361	87.877041	0.308290	-2.307657	18.156682	1.635934	-21.737982	-34.790949	36.504109	8.624742	46.692788	33.132163	22.280441	4.886945	45.681793	31.444001	12.494169	-4.706908	59.538112	41.232485	8.297026	-9.022706	58.723383	41.382240
-0.795000	0.866899	-3.180214	97.472630	-0.106667	-0.189815	-0.033351	87.877040	0.306660	-2.314556	18.131081	1.643905	-21.734130	-34.782266	36.509684	8.622115	46.720253	33.147485	22.273553	4.892425	45.710524	31.467344	12.510050	-4.712041	59.566221	41.242796	8.300174	-9.015513	58.750356	41.387815
-0.785000	0.866899	-3.180214	97.472630	-0.106652	-0.189822	-0.033344	87.880748	0.309660	-2.322840	18.108053	1.637042	-21.735209	-34.777640	36.517109	8.619374	46.744355	33.162020	22.268365	4.895960	45.737117	31.488880	12.525881	-4.716925	59.594468	41.253548	8.304634	-9.006083	58.778683	41.394158
-0.775000	0.866899	-3.180214	97.472630	-0.106637	-0.189826	-0.033340	87.889489	0.316815	-2.332106	18.089235	1.613378	-21.743239	-34.780372	36.527365	8.615623	46.765297	33.175126	22.266797	4.897088	45.759547	31.506347	12.540343	-4.720017	59.617902	41.262732	8.316708	-8.997634	58.803442	41.399412
-0.765000	0.866899	-3.180214	97.472630	-0.106623	-0.189828	-0.033337	87.902040	0.326006	-2.341367	18.075045	1.577796	-21.756935	-34.790512	36.539398	8.610452	46.784970	33.187186	22.268670	4.896421	45.778203	31.519388	12.551885	-4.720153	59.634514	41.269626	8.340220	-8.994146	58.822369	41.402227
-0.755000	0.866899	-3.180214	97.472630	-0.106610	-0.189827	-0.033333	87.915591	0.334689	-2.349366	18.064242	1.538999	-21.772769	-34.805150	36.550435	8.603983	46.805388	33.198940	22.272159	4.895219	45.794565	31.528995	12.559456	-4.717269	59.645421	41.274776	8.374755	-8.998179	58.835233	41.401728
-0.745000	0.866899	-3.180214	97.472630	-0.106597	-0.189825	-0.033328	87.927459	0.341134	-2.355126	18.054497	1.505063	-21.786887	-34.820020	36.557291	8.596451	46.827280	33.210759	22.275149	4.894590	45.809481	31.536458	12.562972	-4.712525	59.653479	41.279329	8.415555	-9.009255	58.842607	41.397540
-0.735000	0.866899	-3.180214	97.472630	-0.106586	-0.189823	-0.033321	87.936383	0.344998	-2.358377	18.043496	1.479906	-21.796737	-34.831351	36.557906	8.587754	46.849720	33.222403	22.276740	4.894756	45.822517	31.542739	12.563185	-4.707696	59.661434	41.284270	8.455392	-9.023820	58.845409	41.390035
-0.725000	0.866899	-3.180214	97.472630	-0.106577	-0.189820	-0.033312	87.942867	0.347133	-2.359631	18.029902	1.462336	-21.801725	-34.837132	36.552392	8.577444	46.870877	33.233319	22.278049	4.894832	45.832767	31.548581	12.561215	-4.704194	59.670709	41.290008	8.487764	-9.036833	58.845347	41.380609
-0.715000	0.866899	-3.180214	97.472630	-0.106568	-0.189817	-0.033302	87.948670	0.348973	-2.359985	18.013683	1.447823	-21.802971	-34.837503	36.543166	8.565231	46.889234	33.243176	22.281732	4.893309	45.840325	31.554939	12.558298	-4.702361	59.681291	41.296422	8.510043	-9.044116	58.845261	41.371507
-0.705000	0.866899	-3.180214	97.472630	-0.106560	-0.189814	-0.033291	87.955798	0.351877	-2.360810	17.995789	1.431635	-21.802583	-34.834383	36.534177	8.551609	46.904536	33.252198	22.290337	4.889048	45.847117	31.563105	12.555943	-4.701455	59.692486	41.303187	8.525160	-9.044286	58.848546	41.365090
-0.695000	0.866899	-3.180214	97.472630	-0.106551	-0.189811	-0.033282	87.965446	0.356694	-2.363460	17.977463	1.411391	-21.802861	-34.830592	36.529552	8.538001	46.918047	33.261100	22.304434	4.882212	45.856437	31.574265	12.556077	-4.700299	59.703957	41.310145	8.540907	-9.039386	58.857845	41.362851
-0.685000	0.866899	-3.180214	97.472630	-0.106541	-0.189808	-0.033275	87.977426	0.363682	-2.369018	17.959638	1.387730	-21.805624	-34.828790	36.532188	8.526186	46.932132	33.270695	22.321830	4.874505	45.871416	31.588760	12.560628	-4.698093	59.716361	41.317506	8.566849	-9.033863	58.873884	41.364787
-0.675000	0.866899	-3.180214	97.472630	-0.106528	-0.189808	-0.033271	87.990400	0.372756	-2.378103	17.942747	1.363127	-21.811785	-34.830648	36.542724	8.517390	46.949355	33.281432	22.338519	4.868422	45.893385	31.605593	12.570527	-4.694845	59.731154	41.325763	8.609952	-9.032272	58.895078	41.369483
-0.665000	0.866899	-3.180214	97.472630	-0.106513	-0.189812	-0.033272	88.002785	0.383818	-2.390719	17.926996	1.339886	-21.821230	-34.836489	36.559185	8.511709	46.971390	33.293120	22.350852	4.865892	45.921036	31.622602	12.584805	-4.691217	59.749618	41.335341	8.670836	-9.036732	58.917994	41.374822
-0.655000	0.866899	-3.180214	97.472630	-0.106497	-0.189820	-0.033275	88.013698	0.396856	-2.406183	17.912842	1.318570	-21.833000	-34.845468	36.577508	8.508194	46.998168	33.304984	22.357546	4.867151	45.950808	31.637269	12.600761	-4.688098	59.771700	41.346137	8.742584	-9.045404	58.938444	41.378888
-0.645000	0.866899	-3.180214	97.472630	-0.106480	-0.189832	-0.033281	88.023328	0.411672	-2.423166	17.901244	1.297724	-21.845660	-34.856092	36.592933	8.505406	47.027780	33.316022	22.360268	4.870605	45.978333	31.647819	12.615515	-4.686351	59.795501	41.357211	8.812867	-9.052819	58.952900	41.380646
-0.635000	0.866899	-3.180214	97.472630	-0.106465	-0.189845	-0.033287	88.032491	0.427453	-2.439847	17.893437	1.275065	-21.857660	-34.866810	36.601791	8.502018	47.057407	33.325539	22.362383	4.873820	46.000387	31.654095	12.628086	-4.686866	59.817895	41.366919	8.868573	-9.052017	58.959809	41.380112
